<?xml version="1.0" encoding="utf-8"?>
<!-- Generator: Adobe Illustrator 19.2.1, SVG Export Plug-In . SVG Version: 6.00 Build 0)  -->
<svg version="1.1" id="Layer_1" xmlns="http://www.w3.org/2000/svg" xmlns:xlink="http://www.w3.org/1999/xlink" x="0px" y="0px"
	 viewBox="0 0 138 138" style="enable-background:new 0 0 138 138;" xml:space="preserve">
<style type="text/css">
	.st0{fill:#FFFFFF;}
	.st1{fill:#4CB2A2;}
</style>
<g>
	<path class="st0" d="M40.8,110.3c8,5.5,17.7,8.7,28.2,8.7c27.6,0,50-22.4,50-50c0-10.4-3.2-20.1-8.7-28.2L40.8,110.3z M26.9,96
		L96,26.9c-7.8-5-17-7.9-27-7.9c-27.6,0-50,22.4-50,50C19,78.9,21.9,88.2,26.9,96z M69,137c-37.6,0-68-30.4-68-68S31.4,1,69,1
		s68,30.4,68,68S106.6,137,69,137z"/>
	<path class="st1" d="M69,137.5c-37.8,0-68.5-30.7-68.5-68.5C0.5,31.2,31.2,0.5,69,0.5c37.8,0,68.5,30.7,68.5,68.5
		C137.5,106.8,106.8,137.5,69,137.5z M69,1.5C31.8,1.5,1.5,31.8,1.5,69s30.3,67.5,67.5,67.5s67.5-30.3,67.5-67.5S106.2,1.5,69,1.5z
		 M69,119.5c-10.2,0-20.1-3-28.5-8.8l-0.5-0.3l0.4-0.4L110.4,40l0.3,0.5c5.7,8.4,8.8,18.2,8.8,28.5C119.5,96.8,96.8,119.5,69,119.5z
		 M41.6,110.2c8.1,5.4,17.6,8.3,27.4,8.3c27.3,0,49.5-22.2,49.5-49.5c0-9.8-2.9-19.3-8.3-27.4L41.6,110.2z M26.8,96.8l-0.3-0.5
		c-5.2-8.1-8-17.5-8-27.2c0-27.8,22.7-50.5,50.5-50.5c9.7,0,19.1,2.8,27.2,8l0.5,0.3l-0.4,0.4L26.8,96.8z M69,19.5
		c-27.3,0-49.5,22.2-49.5,49.5c0,9.3,2.6,18.3,7.5,26.2L95.2,27C87.3,22.1,78.3,19.5,69,19.5z"/>
</g>
</svg>
