<?xml version="1.0" encoding="UTF-8"?>
<svg width="140px" height="150px" viewBox="0 0 140 150" version="1.1" xmlns="http://www.w3.org/2000/svg" xmlns:xlink="http://www.w3.org/1999/xlink">
    <!-- Generator: Sketch 47.1 (45422) - http://www.bohemiancoding.com/sketch -->
    <title>Loader</title>
    <desc>Created with Sketch.</desc>
    <defs></defs>
    <g id="Code-Challenge" stroke="none" stroke-width="1" fill="none" fill-rule="evenodd">
        <g id="loading" transform="translate(-380.000000, -194.000000)" stroke="#4CB2A2" fill="#FFFFFF">
            <path d="M397.164985,299.080212 C393.162333,300.68449 388.359149,299.080212 385.957558,294.267378 C375.550661,268.598929 381.954905,239.721924 401.167638,220.470588 C419.57984,202.02139 446.797878,196.406417 471.614324,204.427807 L475.616977,194 L488.425465,218.064171 L462.808488,230.096256 L466.811141,219.668449 C447.598408,213.251336 427.585145,218.064171 412.375065,232.502673 C397.965516,246.941175 393.162333,269.40106 401.167638,288.652404 C402.768699,291.86096 401.968168,295.069517 399.566577,297.475934 C398.766046,298.278073 397.965516,298.278073 397.164985,299.080212 Z M502.835015,238.919785 C506.837667,237.315507 511.640851,239.721924 514.042442,243.732619 C524.449339,269.401076 518.045095,298.278089 498.832362,317.529417 C480.42016,335.978607 453.20213,341.593589 428.385684,333.572198 L424.383031,344 L411.574543,319.935818 L437.19152,307.903733 L433.188867,318.331548 C452.401592,323.946505 473.215385,319.133679 486.824404,305.497316 C501.233954,291.058813 506.037137,268.598921 498.031832,249.347592 C496.430771,245.336897 498.832362,240.524063 502.835015,238.919785 Z" id="Combined-Shape"></path>
        </g>
    </g>
</svg>